<svg width="37.000000" height="37.000000" viewBox="0 0 37 37" fill="none" xmlns="http://www.w3.org/2000/svg" xmlns:xlink="http://www.w3.org/1999/xlink">
	<desc>
			Created with Pixso.
	</desc>
	<defs>
		<clipPath id="clip11_10">
			<rect id="random-2dice-svgrepo-com (1)" width="37.000000" height="37.000000" fill="white" fill-opacity="0"/>
		</clipPath>
	</defs>
	<g clip-path="url(#clip11_10)">
		<path id="path" d="M3.59 14.58C3.59 14.43 3.62 14.28 3.68 14.14C3.74 14 3.83 13.87 3.94 13.76C4.05 13.66 4.17 13.57 4.31 13.52C4.45 13.46 4.6 13.43 4.75 13.43L16.32 13.52C16.96 13.53 17.51 14.05 17.54 14.68L17.62 15.97L21.47 9.84C21.55 9.71 21.66 9.6 21.78 9.51C21.91 9.43 22.04 9.37 22.19 9.33C22.34 9.3 22.49 9.3 22.64 9.33C22.79 9.36 22.93 9.41 23.05 9.5L32.74 15.91C32.87 16 32.97 16.1 33.06 16.23C33.14 16.36 33.2 16.5 33.23 16.65C33.26 16.8 33.27 16.95 33.24 17.1C33.21 17.25 33.15 17.39 33.07 17.52L26.74 27.13C26.39 27.67 25.66 27.82 25.12 27.49L17.62 22.82L17.62 26.65C17.62 27.29 17.1 27.81 16.46 27.81L4.69 27.81C4.54 27.81 4.39 27.78 4.25 27.72C4.11 27.66 3.98 27.58 3.88 27.47C3.77 27.36 3.69 27.24 3.63 27.1C3.57 26.95 3.54 26.81 3.54 26.65L3.59 14.58ZM5.3 15.55L5.28 25.93L15.99 25.94L15.98 21.63L15.12 21.04C14.86 20.86 14.78 20.49 14.94 20.21L16.04 18.35L15.97 15.5L5.3 15.55ZM22.61 11.41L17.05 20.05L25.86 25.59L31.3 17.13L22.61 11.41Z" fill="#FFFFFF" fill-opacity="1.000000" fill-rule="evenodd"/>
		<path id="path" d="M3.68 14.14C3.74 14 3.83 13.87 3.94 13.76C4.05 13.66 4.17 13.57 4.31 13.52C4.45 13.46 4.6 13.43 4.75 13.43L16.32 13.52C16.96 13.53 17.51 14.05 17.54 14.68L17.62 15.97L21.47 9.84C21.55 9.71 21.66 9.6 21.78 9.51C21.91 9.43 22.04 9.37 22.19 9.33C22.34 9.3 22.49 9.3 22.64 9.33C22.79 9.36 22.93 9.41 23.05 9.5L32.74 15.91C32.87 16 32.97 16.1 33.06 16.23C33.14 16.36 33.2 16.5 33.23 16.65C33.26 16.8 33.27 16.95 33.24 17.1C33.21 17.25 33.15 17.39 33.07 17.52L26.74 27.13C26.39 27.67 25.66 27.82 25.12 27.49L17.62 22.82L17.62 26.65C17.62 27.29 17.1 27.81 16.46 27.81L4.69 27.81C4.54 27.81 4.39 27.78 4.25 27.72C4.11 27.66 3.98 27.58 3.88 27.47C3.77 27.36 3.69 27.24 3.63 27.1C3.57 26.95 3.54 26.81 3.54 26.65L3.59 14.58C3.59 14.43 3.62 14.28 3.68 14.14ZM5.28 25.93L15.99 25.94L15.98 21.63L15.12 21.04C14.86 20.86 14.78 20.49 14.94 20.21L16.04 18.35L15.97 15.5L5.3 15.55L5.28 25.93ZM17.05 20.05L25.86 25.59L31.3 17.13L22.61 11.41L17.05 20.05Z" stroke="#FFFFFF" stroke-opacity="1.000000" stroke-width="0.250000"/>
		<circle id="circle" cx="19.945312" cy="19.511719" r="1.156250" fill="#FFFFFF" fill-opacity="1.000000"/>
		<circle id="circle" cx="19.945312" cy="19.511719" r="1.156250" stroke="#FFFFFF" stroke-opacity="1.000000" stroke-width="0.250000"/>
		<circle id="circle" cx="23.847656" cy="18.789062" r="1.156250" fill="#FFFFFF" fill-opacity="1.000000"/>
		<circle id="circle" cx="23.847656" cy="18.789062" r="1.156250" stroke="#FFFFFF" stroke-opacity="1.000000" stroke-width="0.250000"/>
		<circle id="circle" cx="27.894531" cy="18.066406" r="1.156250" fill="#FFFFFF" fill-opacity="1.000000"/>
		<circle id="circle" cx="27.894531" cy="18.066406" r="1.156250" stroke="#FFFFFF" stroke-opacity="1.000000" stroke-width="0.250000"/>
		<circle id="circle" cx="7.226562" cy="17.921875" r="1.156250" fill="#FFFFFF" fill-opacity="1.000000"/>
		<circle id="circle" cx="7.226562" cy="17.921875" r="1.156250" stroke="#FFFFFF" stroke-opacity="1.000000" stroke-width="0.250000"/>
		<circle id="circle" cx="10.550781" cy="20.957031" r="1.156250" fill="#FFFFFF" fill-opacity="1.000000"/>
		<circle id="circle" cx="10.550781" cy="20.957031" r="1.156250" stroke="#FFFFFF" stroke-opacity="1.000000" stroke-width="0.250000"/>
		<circle id="circle" cx="13.730469" cy="17.777344" r="1.156250" fill="#FFFFFF" fill-opacity="1.000000"/>
		<circle id="circle" cx="13.730469" cy="17.777344" r="1.156250" stroke="#FFFFFF" stroke-opacity="1.000000" stroke-width="0.250000"/>
		<circle id="circle" cx="7.371094" cy="23.847656" r="1.156250" fill="#FFFFFF" fill-opacity="1.000000"/>
		<circle id="circle" cx="7.371094" cy="23.847656" r="1.156250" stroke="#FFFFFF" stroke-opacity="1.000000" stroke-width="0.250000"/>
		<circle id="circle" cx="13.730469" cy="23.847656" r="1.156250" fill="#FFFFFF" fill-opacity="1.000000"/>
		<circle id="circle" cx="13.730469" cy="23.847656" r="1.156250" stroke="#FFFFFF" stroke-opacity="1.000000" stroke-width="0.250000"/>
	</g>
</svg>
