<svg xmlns="http://www.w3.org/2000/svg" fill="none" viewBox="0 0 450 450" id="Video-Games-Box-Random-Questionmark--Streamline-Nova.svg" height="450" width="450"><desc>Video Games Box Random Questionmark Streamline Icon: https://streamlinehq.com</desc><path fill="#000000" fill-rule="evenodd" d="M18.75 0C8.394656249999999 0 0 8.394656249999999 0 18.75v412.5c0 10.355625 8.394656249999999 18.75 18.75 18.75h412.5c10.355625 0 18.75 -8.394375 18.75 -18.75V18.75c0 -10.355343750000001 -8.394375 -18.75 -18.75 -18.75H18.75Zm206.25 356.25c15.5325 0 28.125 -12.5925 28.125 -28.125S240.5325 300 225 300s-28.125 12.5925 -28.125 28.125 12.5925 28.125 28.125 28.125ZM187.5 168.75c0 -21.519750000000002 15.980625 -37.5 37.5 -37.5s37.5 15.98025 37.5 37.5c0 21.519375 -15.980625 37.5 -37.5 37.5 -10.355625 0 -18.75 8.394375 -18.75 18.75v37.5h37.5v-20.99625c32.795625 -8.07 56.25 -37.025625 56.25 -72.75375 0 -42.2304375 -32.769375000000004 -75 -75 -75 -42.2304375 0 -75 32.7695625 -75 75h37.5ZM84.375 112.5C99.9080625 112.5 112.5 99.9080625 112.5 84.375S99.9080625 56.25 84.375 56.25 56.25 68.8419375 56.25 84.375 68.8419375 112.5 84.375 112.5ZM112.5 365.625c0 15.5325 -12.5919375 28.125 -28.125 28.125S56.25 381.15749999999997 56.25 365.625 68.8419375 337.5 84.375 337.5s28.125 12.5925 28.125 28.125ZM365.625 112.5c15.5325 0 28.125 -12.5919375 28.125 -28.125S381.15749999999997 56.25 365.625 56.25 337.5 68.8419375 337.5 84.375 350.09250000000003 112.5 365.625 112.5ZM393.75 365.625c0 15.5325 -12.5925 28.125 -28.125 28.125s-28.125 -12.5925 -28.125 -28.125 12.5925 -28.125 28.125 -28.125 28.125 12.5925 28.125 28.125Z" clip-rule="evenodd" stroke-width="1"></path></svg>